<?xml version="1.0" encoding="UTF-8" standalone="no"?>
<!DOCTYPE svg PUBLIC "-//W3C//DTD SVG 1.1//EN"
 "http://www.w3.org/Graphics/SVG/1.1/DTD/svg11.dtd">
<!-- Generated by graphviz version 2.38.0 (20140413.2041)
 -->
<!-- Title: G Pages: 1 -->
<svg width="614pt" height="600pt"
 viewBox="0.00 0.00 614.00 600.00" xmlns="http://www.w3.org/2000/svg" xmlns:xlink="http://www.w3.org/1999/xlink">
<g id="graph0" class="graph" transform="scale(1 1) rotate(0) translate(4 596)">
<title>G</title>
<polygon fill="white" stroke="none" points="-4,4 -4,-596 610,-596 610,4 -4,4"/>
<g id="clust1" class="cluster"><title>cluster_Global</title>
<path fill="none" stroke="gray" d="M20,-44C20,-44 586,-44 586,-44 592,-44 598,-50 598,-56 598,-56 598,-572 598,-572 598,-578 592,-584 586,-584 586,-584 20,-584 20,-584 14,-584 8,-578 8,-572 8,-572 8,-56 8,-56 8,-50 14,-44 20,-44"/>
<text text-anchor="middle" x="303" y="-571.2" font-family="Times,serif" font-size="11.00" fill="gray">Global</text>
</g>
<g id="clust2" class="cluster"><title>cluster_\Phpcraft</title>
<path fill="none" stroke="gray" d="M28,-52C28,-52 578,-52 578,-52 584,-52 590,-58 590,-64 590,-64 590,-544 590,-544 590,-550 584,-556 578,-556 578,-556 28,-556 28,-556 22,-556 16,-550 16,-544 16,-544 16,-64 16,-64 16,-58 22,-52 28,-52"/>
<text text-anchor="middle" x="303" y="-543.2" font-family="Times,serif" font-size="11.00" fill="gray">Phpcraft</text>
</g>
<!-- \\Phpcraft\\Utils -->
<g id="node1" class="node"><title>\\Phpcraft\\Utils</title>
<polygon fill="none" stroke="black" points="523,-528 469,-528 469,-492 523,-492 523,-528"/>
<text text-anchor="middle" x="496" y="-507.2" font-family="Courier,monospace" font-size="11.00">Utils</text>
</g>
<!-- \\Phpcraft\\Account -->
<g id="node2" class="node"><title>\\Phpcraft\\Account</title>
<polygon fill="none" stroke="black" points="528,-474 464,-474 464,-438 528,-438 528,-474"/>
<text text-anchor="middle" x="496" y="-453.2" font-family="Courier,monospace" font-size="11.00">Account</text>
</g>
<!-- \\Phpcraft\\Exception -->
<g id="node3" class="node"><title>\\Phpcraft\\Exception</title>
<polygon fill="none" stroke="black" points="534.5,-96 457.5,-96 457.5,-60 534.5,-60 534.5,-96"/>
<text text-anchor="middle" x="496" y="-75.2" font-family="Courier,monospace" font-size="11.00">Exception</text>
</g>
<!-- \\Exception -->
<g id="node17" class="node"><title>\\Exception</title>
<ellipse fill="none" stroke="black" cx="259" cy="-18" rx="60.3893" ry="18"/>
<text text-anchor="middle" x="259" y="-14.3" font-family="Times,serif" font-size="14.00" fill="gray">\Exception</text>
</g>
<!-- \\Phpcraft\\Exception&#45;&gt;\\Exception -->
<g id="edge1" class="edge"><title>\\Phpcraft\\Exception&#45;&gt;\\Exception</title>
<path fill="none" stroke="black" d="M457.243,-68.36C418.966,-58.5871 359.312,-43.3563 315.625,-32.2021"/>
<polygon fill="none" stroke="black" points="316.279,-28.757 305.724,-29.6743 314.547,-35.5394 316.279,-28.757"/>
</g>
<!-- \\Phpcraft\\Connection -->
<g id="node4" class="node"><title>\\Phpcraft\\Connection</title>
<polygon fill="none" stroke="black" points="108,-366 24,-366 24,-330 108,-330 108,-366"/>
<text text-anchor="middle" x="66" y="-345.2" font-family="Courier,monospace" font-size="11.00">Connection</text>
</g>
<!-- \\Phpcraft\\ServerConnection -->
<g id="node5" class="node"><title>\\Phpcraft\\ServerConnection</title>
<polygon fill="none" stroke="black" points="321.5,-393 196.5,-393 196.5,-357 321.5,-357 321.5,-393"/>
<text text-anchor="middle" x="259" y="-372.2" font-family="Courier,monospace" font-size="11.00">ServerConnection</text>
</g>
<!-- \\Phpcraft\\ServerConnection&#45;&gt;\\Phpcraft\\Connection -->
<g id="edge2" class="edge"><title>\\Phpcraft\\ServerConnection&#45;&gt;\\Phpcraft\\Connection</title>
<path fill="none" stroke="black" d="M196.252,-366.271C170.979,-362.699 142.088,-358.615 118.039,-355.215"/>
<polygon fill="none" stroke="black" points="118.445,-351.738 108.054,-353.803 117.465,-358.669 118.445,-351.738"/>
</g>
<!-- \\Phpcraft\\ServerStatusConnection -->
<g id="node6" class="node"><title>\\Phpcraft\\ServerStatusConnection</title>
<polygon fill="none" stroke="black" points="578.5,-420 413.5,-420 413.5,-384 578.5,-384 578.5,-420"/>
<text text-anchor="middle" x="496" y="-399.2" font-family="Courier,monospace" font-size="11.00">ServerStatusConnection</text>
</g>
<!-- \\Phpcraft\\ServerStatusConnection&#45;&gt;\\Phpcraft\\ServerConnection -->
<g id="edge3" class="edge"><title>\\Phpcraft\\ServerStatusConnection&#45;&gt;\\Phpcraft\\ServerConnection</title>
<path fill="none" stroke="black" d="M413.468,-392.632C386.902,-389.58 357.621,-386.216 331.821,-383.252"/>
<polygon fill="none" stroke="black" points="332.079,-379.758 321.745,-382.094 331.28,-386.713 332.079,-379.758"/>
</g>
<!-- \\Phpcraft\\ServerPlayConnection -->
<g id="node7" class="node"><title>\\Phpcraft\\ServerPlayConnection</title>
<polygon fill="none" stroke="black" points="572,-366 420,-366 420,-330 572,-330 572,-366"/>
<text text-anchor="middle" x="496" y="-345.2" font-family="Courier,monospace" font-size="11.00">ServerPlayConnection</text>
</g>
<!-- \\Phpcraft\\ServerPlayConnection&#45;&gt;\\Phpcraft\\ServerConnection -->
<g id="edge4" class="edge"><title>\\Phpcraft\\ServerPlayConnection&#45;&gt;\\Phpcraft\\ServerConnection</title>
<path fill="none" stroke="black" d="M419.998,-356.617C391.765,-359.861 359.748,-363.54 331.812,-366.749"/>
<polygon fill="none" stroke="black" points="331.255,-363.29 321.719,-367.909 332.054,-370.244 331.255,-363.29"/>
</g>
<!-- \\Phpcraft\\ClientConnection -->
<g id="node8" class="node"><title>\\Phpcraft\\ClientConnection</title>
<polygon fill="none" stroke="black" points="321.5,-339 196.5,-339 196.5,-303 321.5,-303 321.5,-339"/>
<text text-anchor="middle" x="259" y="-318.2" font-family="Courier,monospace" font-size="11.00">ClientConnection</text>
</g>
<!-- \\Phpcraft\\ClientConnection&#45;&gt;\\Phpcraft\\Connection -->
<g id="edge5" class="edge"><title>\\Phpcraft\\ClientConnection&#45;&gt;\\Phpcraft\\Connection</title>
<path fill="none" stroke="black" d="M196.252,-329.729C170.979,-333.301 142.088,-337.385 118.039,-340.785"/>
<polygon fill="none" stroke="black" points="117.465,-337.331 108.054,-342.197 118.445,-344.262 117.465,-337.331"/>
</g>
<!-- \\Phpcraft\\Packet -->
<g id="node9" class="node"><title>\\Phpcraft\\Packet</title>
<polygon fill="none" stroke="black" points="108,-204 24,-204 24,-168 108,-168 108,-204"/>
<text text-anchor="start" x="32" y="-189.2" font-family="Courier,monospace" font-size="11.00">«abstract»</text>
<text text-anchor="start" x="45.5" y="-177.2" font-family="Courier,monospace" font-size="11.00">Packet</text>
</g>
<!-- \\Phpcraft\\KeepAlivePacket -->
<g id="node10" class="node"><title>\\Phpcraft\\KeepAlivePacket</title>
<polygon fill="none" stroke="black" points="318,-258 200,-258 200,-222 318,-222 318,-258"/>
<text text-anchor="start" x="225" y="-243.2" font-family="Courier,monospace" font-size="11.00">«abstract»</text>
<text text-anchor="start" x="208" y="-231.2" font-family="Courier,monospace" font-size="11.00">KeepAlivePacket</text>
</g>
<!-- \\Phpcraft\\KeepAlivePacket&#45;&gt;\\Phpcraft\\Packet -->
<g id="edge6" class="edge"><title>\\Phpcraft\\KeepAlivePacket&#45;&gt;\\Phpcraft\\Packet</title>
<path fill="none" stroke="black" d="M199.916,-223.578C173.755,-216.182 143.145,-207.528 117.899,-200.39"/>
<polygon fill="none" stroke="black" points="118.726,-196.987 108.151,-197.634 116.822,-203.723 118.726,-196.987"/>
</g>
<!-- \\Phpcraft\\KeepAliveRequestPacket -->
<g id="node11" class="node"><title>\\Phpcraft\\KeepAliveRequestPacket</title>
<polygon fill="none" stroke="black" points="578.5,-312 413.5,-312 413.5,-276 578.5,-276 578.5,-312"/>
<text text-anchor="middle" x="496" y="-291.2" font-family="Courier,monospace" font-size="11.00">KeepAliveRequestPacket</text>
</g>
<!-- \\Phpcraft\\KeepAliveRequestPacket&#45;&gt;\\Phpcraft\\KeepAlivePacket -->
<g id="edge7" class="edge"><title>\\Phpcraft\\KeepAliveRequestPacket&#45;&gt;\\Phpcraft\\KeepAlivePacket</title>
<path fill="none" stroke="black" d="M416.422,-275.944C387.782,-269.363 355.665,-261.983 328.019,-255.63"/>
<polygon fill="none" stroke="black" points="328.58,-252.168 318.05,-253.339 327.013,-258.99 328.58,-252.168"/>
</g>
<!-- \\Phpcraft\\KeepAliveResponsePacket -->
<g id="node12" class="node"><title>\\Phpcraft\\KeepAliveResponsePacket</title>
<polygon fill="none" stroke="black" points="582,-258 410,-258 410,-222 582,-222 582,-258"/>
<text text-anchor="middle" x="496" y="-237.2" font-family="Courier,monospace" font-size="11.00">KeepAliveResponsePacket</text>
</g>
<!-- \\Phpcraft\\KeepAliveResponsePacket&#45;&gt;\\Phpcraft\\KeepAlivePacket -->
<g id="edge8" class="edge"><title>\\Phpcraft\\KeepAliveResponsePacket&#45;&gt;\\Phpcraft\\KeepAlivePacket</title>
<path fill="none" stroke="black" d="M409.827,-240C383.044,-240 353.83,-240 328.369,-240"/>
<polygon fill="none" stroke="black" points="328.076,-236.5 318.076,-240 328.076,-243.5 328.076,-236.5"/>
</g>
<!-- \\Phpcraft\\ChatPacket -->
<g id="node13" class="node"><title>\\Phpcraft\\ChatPacket</title>
<polygon fill="none" stroke="black" points="301,-204 217,-204 217,-168 301,-168 301,-204"/>
<text text-anchor="start" x="225" y="-189.2" font-family="Courier,monospace" font-size="11.00">«abstract»</text>
<text text-anchor="start" x="225" y="-177.2" font-family="Courier,monospace" font-size="11.00">ChatPacket</text>
</g>
<!-- \\Phpcraft\\ChatPacket&#45;&gt;\\Phpcraft\\Packet -->
<g id="edge9" class="edge"><title>\\Phpcraft\\ChatPacket&#45;&gt;\\Phpcraft\\Packet</title>
<path fill="none" stroke="black" d="M216.556,-186C187.674,-186 148.957,-186 118.152,-186"/>
<polygon fill="none" stroke="black" points="118.035,-182.5 108.035,-186 118.035,-189.5 118.035,-182.5"/>
</g>
<!-- \\Phpcraft\\DisconnectPacket -->
<g id="node14" class="node"><title>\\Phpcraft\\DisconnectPacket</title>
<polygon fill="none" stroke="black" points="558.5,-204 433.5,-204 433.5,-168 558.5,-168 558.5,-204"/>
<text text-anchor="middle" x="496" y="-183.2" font-family="Courier,monospace" font-size="11.00">DisconnectPacket</text>
</g>
<!-- \\Phpcraft\\DisconnectPacket&#45;&gt;\\Phpcraft\\ChatPacket -->
<g id="edge10" class="edge"><title>\\Phpcraft\\DisconnectPacket&#45;&gt;\\Phpcraft\\ChatPacket</title>
<path fill="none" stroke="black" d="M433.257,-186C395.259,-186 347.134,-186 311.252,-186"/>
<polygon fill="none" stroke="black" points="311.005,-182.5 301.005,-186 311.005,-189.5 311.005,-182.5"/>
</g>
<!-- \\Phpcraft\\ChatMessagePacket -->
<g id="node15" class="node"><title>\\Phpcraft\\ChatMessagePacket</title>
<polygon fill="none" stroke="black" points="561.5,-150 430.5,-150 430.5,-114 561.5,-114 561.5,-150"/>
<text text-anchor="middle" x="496" y="-129.2" font-family="Courier,monospace" font-size="11.00">ChatMessagePacket</text>
</g>
<!-- \\Phpcraft\\ChatMessagePacket&#45;&gt;\\Phpcraft\\ChatPacket -->
<g id="edge11" class="edge"><title>\\Phpcraft\\ChatMessagePacket&#45;&gt;\\Phpcraft\\ChatPacket</title>
<path fill="none" stroke="black" d="M430.474,-146.827C392.879,-155.466 346.132,-166.208 311.104,-174.257"/>
<polygon fill="none" stroke="black" points="310.056,-170.907 301.093,-176.557 311.623,-177.729 310.056,-170.907"/>
</g>
<!-- \\Phpcraft\\SendChatMessagePacket -->
<g id="node16" class="node"><title>\\Phpcraft\\SendChatMessagePacket</title>
<polygon fill="none" stroke="black" points="338,-150 180,-150 180,-114 338,-114 338,-150"/>
<text text-anchor="middle" x="259" y="-129.2" font-family="Courier,monospace" font-size="11.00">SendChatMessagePacket</text>
</g>
<!-- \\Phpcraft\\SendChatMessagePacket&#45;&gt;\\Phpcraft\\Packet -->
<g id="edge12" class="edge"><title>\\Phpcraft\\SendChatMessagePacket&#45;&gt;\\Phpcraft\\Packet</title>
<path fill="none" stroke="black" d="M194.134,-150.056C169.273,-157.085 141.186,-165.026 117.748,-171.652"/>
<polygon fill="none" stroke="black" points="116.681,-168.317 108.01,-174.406 118.585,-175.053 116.681,-168.317"/>
</g>
</g>
</svg>
